<svg xmlns="http://www.w3.org/2000/svg" viewBox="0 0 32 32" fill="#acacac" width="22" height="22">
  <path d="M22 8h-2V4a2 2 0 0 0-2-2h-4a2 2 0 0 0-2 2v4h-2a3 3 0 0 0-3 3v16a3 3 0 0 0 3 3h12a3 3 0 0 0 3-3V11a3 3 0 0 0-3-3Zm-8-4h4v4h-4Zm9 23a1 1 0 0 1-1 1H10a1 1 0 0 1-1-1V11a1 1 0 0 1 1-1h12a1 1 0 0 1 1 1Z"></path>
  <path d="M18.48 18.685a3 3 0 1 0-4.96 0A4.983 4.983 0 0 0 11 23a1 1 0 0 0 2 0 3 3 0 0 1 6 0 1 1 0 0 0 2 0 4.983 4.983 0 0 0-2.52-4.315ZM15 17a1 1 0 1 1 1 1 1 1 0 0 1-1-1Z"></path>
</svg>
